<svg class="icon" viewBox="0 0 3742 1024" version="1.1" xmlns="http://www.w3.org/2000/svg" p-id="7463" height="128" width="128"><path d="M3614.141965 69.819009H759.378993A496.658995 496.658995 0 0 0 505.345995 0.00001C225.192998 3.65601 0 231.833008 0 512.015005 0 792.168002 225.192998 1020.344 505.345995 1024a496.911995 496.911995 0 0 0 254.119998-69.876999H3614.229965a102.109999 102.109999 0 0 0 101.232999-102.958999V172.573008a102.109999 102.109999 0 0 0-101.319999-102.753999zM505.345995 952.572001a440.674996 440.674996 0 1 1 434.356996-440.703996c1.462 241.543998-192.842998 438.685996-434.356996 440.703996zM288.019997 717.727003h406.101996v55.573999H288.049997v-55.573999z m524.913995-323.909997a42.558 42.558 0 0 1-42.207 42.85 38.025 38.025 0 0 1-12.021999-1.93l-64.554 227.473998H288.049997l-64.523999-227.444998a42.821 42.821 0 1 1 25.242-21l109.861998 63.469999 110.123999-177.280998a42.236 42.236 0 1 1 44.899 0l110.182999 177.281998 109.861999-63.471999a41.768 41.768 0 0 1-4.973-19.89 42.149 42.149 0 1 1 84.209999-0.058z" fill="#FFD200" p-id="7464"></path></svg>