<svg class="icon" viewBox="0 0 1024 1024" version="1.1" xmlns="http://www.w3.org/2000/svg" p-id="2218" height="128" width="128"><path d="M514.2 514.8m-445 0a445 445 0 1 0 890 0 445 445 0 1 0-890 0Z" fill="#ED6501" p-id="2219"></path><path d="M790.7 457.4l-0.1-0.9c-24.9-129.3-140.8-224.2-276.8-224.2-134.1 0-248.8 92.3-275.8 219.2-0.4 1.8-0.4 3.8 0 5.6-30.3 37.1-36.5 88.3-15.9 131.5 20.7 43.3 64.4 70.8 112.4 70.7h0.1c7.6 0 13.8-6.2 13.8-13.8V425.3c0-7.6-6.2-13.8-13.8-13.8-21.4 0-42.4 5.5-61.1 15.9 34.5-98.5 130.2-167.5 240.4-167.5 110 0 205.4 68.8 240.1 166.8-18.4-10-38.9-15.3-59.9-15.3h-0.1c-7.6 0-13.8 6.2-13.7 13.8v220.5c0 7.6 6.2 13.8 13.8 13.8 6.5 0 13-0.5 19.5-1.5-33.1 42.1-78.6 72.7-130.1 87.5v-3.3c0-15.2-12.4-27.5-27.7-27.5h-83.1c-15.2 0-27.5 12.3-27.5 27.5v27.6c0.1 15.2 12.4 27.5 27.7 27.5h83c13.6 0.1 25.2-9.8 27.3-23.2 73.9-18.9 136.8-66.8 174.2-131.8 37.9-22.2 61.2-62.9 61.2-106.8-0.1-28.5-9.9-56.1-27.9-78.1z m-470-15.5V634s-82.8-9.9-83-96.2c-0.2-86.2 83-95.9 83-95.9z m387.1 192.2V441.9s83.1 9.6 83 95.9c-0.2 86.3-83 96.3-83 96.3z" fill="#FFFFFF" p-id="2220"></path></svg>