<svg class="icon" viewBox="0 0 1024 1024" version="1.1" xmlns="http://www.w3.org/2000/svg" p-id="5836" height="128" width="128"><path d="M512.221546 64.35675c-247.225661 0-447.633017 200.348004-447.633017 447.487707 0 247.14482 200.407356 447.487707 447.633017 447.487707 247.225661 0 447.633017-200.342888 447.633017-447.487707C959.854563 264.709871 759.446183 64.35675 512.221546 64.35675L512.221546 64.35675zM753.246995 546.244942l-206.607568 0.00921 0 0-68.838831 0.005117 0 0-206.604498 0.005117 0-68.820412 206.609615-0.00921 0 0 0 0 68.838831-0.004093 206.603475-0.005117L753.248018 546.244942 753.246995 546.244942zM753.246995 546.244942" p-id="5837"></path></svg>