<svg class="icon" viewBox="0 0 1024 1024" version="1.1" xmlns="http://www.w3.org/2000/svg" p-id="6472" height="128" width="128"><path d="M512 0C229.8368 0 0 229.8368 0 512s229.8368 512 512 512 512-229.8368 512-512S794.1632 0 512 0z m193.0496 542.72h-164.1472v162.1248c0 17.536-13.1584 30.72-30.5408 30.72-17.408 0-30.5152-13.2096-30.5152-30.72l1.5616-162.1248h-162.4576c-17.408 0-30.5152-13.2096-30.5152-30.72s13.1328-30.7456 30.5152-30.7456h162.5344v-162.1248c0-17.5104 13.1072-30.72 30.5152-30.72s30.4896 13.2096 30.4896 30.72v162.1248h162.56c17.408 0 30.5152 13.2096 30.5152 30.7456s-13.1072 30.72-30.5152 30.72z" p-id="6473"></path></svg>